<?xml version="1.0" standalone="no"?>
<!DOCTYPE svg PUBLIC "-//W3C//DTD SVG 20010904//EN"
 "http://www.w3.org/TR/2001/REC-SVG-20010904/DTD/svg10.dtd">
<svg version="1.0" xmlns="http://www.w3.org/2000/svg"
 width="700.000000pt" height="700.000000pt" viewBox="0 0 700.000000 700.000000"
 preserveAspectRatio="xMidYMid meet">
<metadata>
Created by potrace 1.14, written by Peter Selinger 2001-2017
</metadata>
<g transform="translate(0.000000,700.000000) scale(0.100000,-0.100000)"
fill="#000000" stroke="none">
<path d="M3378 6415 c-2 -1 -46 -5 -98 -8 -542 -31 -1108 -250 -1570 -606
-224 -173 -453 -416 -621 -661 -241 -350 -429 -835 -475 -1225 -4 -27 -8 -52
-9 -55 -8 -13 -19 -227 -19 -360 0 -225 11 -345 50 -545 155 -815 649 -1523
1360 -1953 380 -229 828 -374 1262 -409 154 -12 564 -4 591 11 3 2 33 6 66 10
33 3 114 18 180 31 160 34 146 30 260 66 849 266 1528 893 1855 1713 91 229
144 432 184 706 26 176 26 538 1 730 -55 410 -189 799 -395 1140 -167 278
-403 553 -640 745 -52 42 -104 84 -115 93 -55 44 -263 176 -364 231 -346 185
-717 297 -1121 336 -65 7 -377 15 -382 10z m297 -590 c88 -5 186 -17 235 -29
14 -3 36 -8 50 -10 221 -37 498 -145 750 -293 277 -162 591 -474 768 -760 195
-314 309 -654 347 -1033 7 -69 7 -327 0 -395 -11 -114 -19 -168 -36 -252 -6
-29 -10 -54 -10 -55 1 -2 -8 -37 -20 -78 -11 -41 -22 -82 -24 -90 -14 -60 -82
-233 -136 -346 -154 -321 -404 -623 -709 -857 -82 -63 -263 -173 -360 -219
-138 -66 -172 -80 -286 -117 -578 -194 -1183 -159 -1738 99 -135 63 -339 189
-446 276 -136 111 -303 275 -365 359 -17 22 -35 46 -42 53 -29 31 -126 177
-182 275 -142 247 -256 589 -286 857 -3 30 -8 73 -11 95 -5 46 -5 336 0 380 2
17 7 62 11 100 11 111 53 297 96 429 119 368 295 653 574 931 228 229 447 378
731 500 101 43 303 111 359 121 17 2 38 7 47 10 21 6 57 14 88 18 14 2 41 7
60 10 61 11 112 16 215 22 55 4 101 7 102 8 3 3 105 -1 218 -9z"/>
<path d="M3200 5218 c-7 -18 -16 -42 -21 -53 -4 -11 -137 -364 -294 -785 -158
-421 -297 -792 -310 -825 -13 -33 -69 -184 -125 -335 -56 -151 -108 -288 -115
-305 -16 -37 -325 -862 -325 -868 0 -7 537 -5 547 2 5 3 58 143 117 311 186
526 175 500 205 500 201 3 1265 0 1268 -3 4 -5 16 -39 108 -302 127 -362 175
-497 180 -505 2 -4 129 -7 280 -8 252 0 276 2 270 17 -4 9 -33 88 -66 176 -33
88 -80 212 -105 275 -24 64 -44 118 -44 122 0 3 -8 23 -17 44 -9 22 -18 44
-19 49 -1 6 -46 125 -99 265 -53 140 -102 271 -109 290 -10 26 -400 1064 -724
1928 l-16 42 -287 0 -287 0 -12 -32z m382 -761 c33 -95 64 -183 68 -197 5 -14
34 -97 65 -185 31 -88 87 -248 125 -355 37 -107 84 -239 103 -292 l35 -98
-479 0 c-263 0 -479 2 -479 4 0 2 12 35 26 72 14 38 45 125 69 194 24 69 73
211 110 315 37 105 85 242 107 305 21 63 45 131 53 150 8 19 33 89 56 155 23
66 46 123 53 127 15 10 20 0 88 -195z"/>
</g>
</svg>
